<?xml version="1.0" encoding="UTF-8"?><svg id="Layer_2" xmlns="http://www.w3.org/2000/svg" viewBox="0 0 279 331.02"><defs><style>.cls-1{fill:#5ead62;}.cls-2{fill:#f7f7f7;stroke:#5ead62;stroke-miterlimit:10;stroke-width:3px;}.cls-3{fill:#aaf8b0;}</style></defs><g id="Layer_1-2"><g><circle class="cls-1" cx="139.5" cy="139.5" r="139.5"/><circle class="cls-3" cx="139.5" cy="139.5" r="104.5"/><polyline class="cls-1" points="221.65 249 139.62 331.02 57.6 249"/></g><g><path class="cls-2" d="M149.15,62.78h3.45c3.55,0,6.43,2.88,6.43,6.43v96.25h-16.31V69.21c0-3.55,2.88-6.43,6.43-6.43Z" transform="translate(63.52 -53.68) rotate(25.4)"/><path class="cls-2" d="M158.57,169.52l-16.35,34.44c-.34,.72-.96,1.28-1.71,1.55h0l-16.8,5.98-20.09,7.16c-1.57,.56-3.3-.26-3.86-1.83l-7.73-21.69-5.41-15.2h0c-.27-.76-.23-1.59,.12-2.31l16.35-34.44c.72-1.51,2.52-2.15,4.02-1.43l50.04,23.76c1.51,.72,2.15,2.52,1.43,4.02Z"/></g></g></svg>